<svg width="100" height="100" viewBox="0 0 100 100" fill="none" xmlns="http://www.w3.org/2000/svg">
<path fill-rule="evenodd" clip-rule="evenodd" d="M49.7159 9.65271C54.7888 10.0632 57.4227 12.2968 60.7752 14.3713C62.0873 15.1832 63.4429 15.6261 64.7565 16.4357C68.7997 18.9274 73.0994 21.3142 77.1429 23.8085C81.3175 26.3837 83.8107 27.0136 85.8429 31.9187C86.5383 33.5973 86.2853 36.2869 86.2853 38.5543C86.2853 42.9284 86.2853 47.3038 86.2853 51.6779C86.2853 55.2165 86.2853 58.7562 86.2853 62.2948C86.2852 64.321 86.4601 66.5557 85.8429 68.0456C83.8138 72.9432 81.3179 73.5883 77.1429 76.1557C72.5155 79.0014 67.6095 81.7199 62.987 84.5608C62.2498 85.0139 61.5077 85.1426 60.7752 85.593C57.4832 87.6171 54.9325 89.6721 50.1583 90.3116C47.763 90.6325 45.2962 89.2142 43.9651 88.3947C40.7408 86.4096 37.3835 84.7371 34.2329 82.7913C30.4383 80.4477 26.4633 78.4573 22.7313 76.1557C18.5565 73.5811 16.0634 72.9501 14.0314 68.0456C13.2834 66.2403 13.5889 63.2435 13.589 60.8202C13.589 56.0038 13.589 51.1859 13.589 46.3695C13.589 43.3715 13.589 40.3726 13.589 37.3746C13.589 35.4318 13.4403 33.3457 14.0314 31.9187C16.3563 26.3054 20.6946 25.1543 25.533 22.1865C31.8562 18.308 38.508 14.6823 44.8499 10.8323C45.8819 10.4883 46.9144 10.1442 47.9464 9.80011C48.5519 9.64991 49.3008 9.92951 49.7159 9.65271V9.65271Z" fill="#5632AC"/>
<path fill-rule="evenodd" clip-rule="evenodd" d="M31.7915 64.0258C27.8521 64.3644 28.4591 64.1138 25.5983 62.5512C24.9347 62.1887 23.556 61.8854 23.239 61.2241C23.239 56.3093 23.239 51.3931 23.239 46.4784C24.7124 45.561 26.8463 44.3561 28.5474 43.8242C29.6287 43.9225 30.7102 44.0208 31.7915 44.1191C31.775 41.6186 31.503 38.5419 31.9389 36.3039C33.354 35.5654 34.5082 34.3889 35.7728 33.5022C38.0928 31.8756 40.3836 30.4107 42.7033 28.7836C43.6162 28.1432 45.9016 25.9627 46.8321 25.687C47.5871 25.4632 49.8149 26.8744 50.371 27.1615C53.6256 28.842 56.9161 30.3692 60.1032 32.0276C62.1035 33.0684 64.2048 33.9647 66.1489 34.9768C66.9965 35.418 68.0177 35.5028 68.3608 36.4513C68.8107 37.1589 68.5248 41.0177 68.5082 42.2022C68.5574 42.2022 68.6066 42.2022 68.6557 42.2022C68.6557 42.2513 68.6557 42.3005 68.6557 42.3496C70.7578 42.599 72.9778 43.5838 74.8489 44.2666C75.492 44.5012 76.3531 44.4309 76.6184 45.0038C76.6184 50.9998 76.6184 56.9976 76.6184 62.9935C76.4998 63.1441 76.566 63.034 76.4709 63.2885C75.2663 63.575 74.0191 64.3132 72.9319 64.763C71.0738 65.5319 69.2042 66.1126 67.476 66.8275C62.8965 68.7216 58.3495 69.956 53.7625 71.841C51.6811 72.6963 49.3627 74.1675 46.8321 74.3477C45.6991 73.3253 44.0469 72.9525 42.7033 72.1359C40.6606 70.8944 38.4049 69.6953 36.3626 68.4495C35.3093 67.8069 32.3358 66.8629 31.9389 65.7952C31.7118 65.4543 31.7739 64.6 31.7915 64.0258V64.0258Z" fill="#FEFEFE"/>
<path fill-rule="evenodd" clip-rule="evenodd" d="M49.0439 30.4056C48.4546 32.1706 48.8839 35.2646 48.8964 37.3361C48.9456 37.3361 48.9948 37.3361 49.0439 37.3361C49.0439 37.3852 49.0439 37.4344 49.0439 37.4835C50.2213 37.6373 53.3313 39.1175 54.0575 38.8106C54.5318 38.0631 54.2214 33.8699 54.2049 32.6174C52.5572 31.8757 50.8794 30.8629 49.0439 30.4056V30.4056Z" fill="#5632AC"/>
<path fill-rule="evenodd" clip-rule="evenodd" d="M44.7677 30.9954C43.6865 31.6835 42.6049 32.3717 41.5236 33.0598C41.5236 35.0749 41.5236 37.0905 41.5236 39.1055C41.5728 39.1055 41.6219 39.1055 41.6711 39.1055C41.6711 39.1547 41.6711 39.2038 41.6711 39.253C42.0611 39.1722 45.1329 37.9149 45.2101 37.7784C45.2101 35.5668 45.2101 33.3545 45.2101 31.1429C45.1609 31.1429 45.1118 31.1429 45.0626 31.1429C44.912 31.0243 45.0222 31.0905 44.7677 30.9954Z" fill="#5632AC"/>
<path fill-rule="evenodd" clip-rule="evenodd" d="M57.5964 34.2395C57.5964 36.1562 57.5964 38.0736 57.5964 39.9903C57.7439 40.0394 57.8913 40.0886 58.0388 40.1378C58.562 40.5231 60.8282 41.2433 61.2829 41.0225C61.7083 40.3549 61.447 36.8305 61.4303 35.714C60.2536 35.1767 59.0758 34.3766 57.5964 34.2395V34.2395Z" fill="#5632AC"/>
<path fill-rule="evenodd" clip-rule="evenodd" d="M36.6576 41.3174C40.2483 41.2297 39.5786 38.2525 39.4592 34.6818C39.4101 34.6818 39.361 34.6818 39.3118 34.6818C39.3118 34.6327 39.3118 34.5835 39.3118 34.5344C39.2135 34.5344 39.1152 34.5344 39.0169 34.5344C38.4996 35.1755 37.3571 35.7169 36.6576 36.1564C36.6576 37.8766 36.6576 39.5973 36.6576 41.3174V41.3174Z" fill="#5632AC"/>
<path fill-rule="evenodd" clip-rule="evenodd" d="M63.7896 36.8937C63.7896 38.5647 63.7896 40.2362 63.7896 41.9072C63.8388 41.9072 63.8879 41.9072 63.9371 41.9072C63.9371 41.9564 63.9371 42.0055 63.9371 42.0547C64.9785 42.1785 65.6643 42.6382 66.7387 42.792C66.7387 41.1701 66.7387 39.5478 66.7387 37.9259C65.6586 37.6603 65.013 37.0204 63.7896 36.8937Z" fill="#5632AC"/>
<path fill-rule="evenodd" clip-rule="evenodd" d="M34.7406 37.1886C34.3839 37.6237 33.4006 37.7907 33.1186 38.2208C33.1186 39.7444 33.1186 41.2684 33.1186 42.792C33.3421 42.8709 33.3683 42.8915 33.7084 42.9395C34.0561 42.6301 35.1297 42.4692 35.3305 42.0547C35.3305 40.482 35.3305 38.9088 35.3305 37.3361C35.2813 37.3361 35.2321 37.3361 35.183 37.3361C35.183 37.2869 35.183 37.2378 35.183 37.1886C35.0356 37.1886 34.8881 37.1886 34.7406 37.1886V37.1886Z" fill="#5632AC"/>
<path fill-rule="evenodd" clip-rule="evenodd" d="M54.2049 50.6072C54.2049 48.543 54.2049 46.4782 54.2049 44.414C54.0575 44.3649 53.91 44.3157 53.7625 44.2666C53.0271 43.7954 50.1041 43.4588 49.0439 43.3818C48.4546 45.1468 48.8839 48.2408 48.8964 50.3123C48.9948 50.3123 49.0931 50.3123 49.1914 50.3123C49.9005 50.7616 53.0143 50.6218 54.2049 50.6072V50.6072Z" fill="#5632AC"/>
<path fill-rule="evenodd" clip-rule="evenodd" d="M44.3253 43.6767C43.6183 44.1538 42.3374 44.0371 41.6711 44.5615C41.2049 45.2957 41.5071 49.3774 41.5236 50.6072C41.8001 50.7033 42.1006 50.7476 42.5558 50.7547C43.1872 50.3776 44.4847 50.7032 45.0626 50.3123C45.5532 49.5381 45.2265 45.122 45.2101 43.8242C45.1609 43.8242 45.1118 43.8242 45.0626 43.8242C45.0626 43.775 45.0626 43.7259 45.0626 43.6767C44.8169 43.6767 44.5711 43.6767 44.3253 43.6767V43.6767Z" fill="#5632AC"/>
<path fill-rule="evenodd" clip-rule="evenodd" d="M57.5964 45.0038C57.5964 46.9206 57.5964 48.8379 57.5964 50.7547C57.6456 50.7547 57.6947 50.7547 57.7439 50.7547C57.7439 50.8038 57.7439 50.853 57.7439 50.9021C58.9234 51.0004 60.1033 51.0987 61.2829 51.197C61.2829 51.1478 61.2829 51.0987 61.2829 51.0495C61.332 51.0495 61.3812 51.0495 61.4303 51.0495C61.4303 49.2311 61.4303 47.4121 61.4303 45.5937C60.1364 45.4513 59.02 45.056 57.5964 45.0038V45.0038Z" fill="#5632AC"/>
<path fill-rule="evenodd" clip-rule="evenodd" d="M38.722 45.1513C38.2692 45.4738 37.4061 45.6148 36.805 45.7411C36.3571 47.0757 36.6454 49.4357 36.6576 51.0495C36.9162 51.1425 36.8008 51.078 36.9525 51.197C37.6012 51.0951 38.8678 51.1059 39.3118 50.7547C39.7454 50.0737 39.4759 46.4378 39.4592 45.2987C39.4101 45.2987 39.361 45.2987 39.3118 45.2987C39.3118 45.2496 39.3118 45.2004 39.3118 45.1513C39.1152 45.1513 38.9186 45.1513 38.722 45.1513Z" fill="#5632AC"/>
<path fill-rule="evenodd" clip-rule="evenodd" d="M63.7896 51.197C64.6261 51.2926 65.7004 51.3457 66.7387 51.3444C66.7387 49.7718 66.7387 48.1986 66.7387 46.6259C66.6896 46.6259 66.6404 46.6259 66.5913 46.6259C66.5913 46.5767 66.5913 46.5275 66.5913 46.4784C65.7407 46.4342 64.4235 45.945 63.9371 46.1835C63.5279 46.8244 63.7728 50.1259 63.7896 51.197Z" fill="#5632AC"/>
<path fill-rule="evenodd" clip-rule="evenodd" d="M34.8881 46.1835C34.455 46.4756 33.6702 46.4563 33.2661 46.7733C32.7386 47.597 33.0988 50.1781 33.1186 51.3444C33.2169 51.3444 33.3152 51.3444 33.4135 51.3444C33.5495 51.3954 34.5986 51.3564 35.183 51.3444C35.6052 50.0878 35.3426 47.8618 35.3305 46.3309C35.2813 46.3309 35.2321 46.3309 35.183 46.3309C35.0324 46.2123 35.1426 46.2786 34.8881 46.1835V46.1835Z" fill="#5632AC"/>
<path fill-rule="evenodd" clip-rule="evenodd" d="M69.5404 47.0682C69.1694 48.1694 69.381 50.1267 69.393 51.4919C69.9252 51.6747 70.8503 51.6498 71.6048 51.6394C71.9504 50.6156 71.7642 48.7933 71.7523 47.5106C71.654 47.5106 71.5557 47.5106 71.4574 47.5106C71.0376 47.2282 70.0881 47.1731 69.5404 47.0682V47.0682Z" fill="#5632AC"/>
<path fill-rule="evenodd" clip-rule="evenodd" d="M74.7014 51.7868C74.7014 50.5582 74.7014 49.3291 74.7014 48.1004C74.4472 48.0121 74.2366 47.9692 73.8167 47.953C73.6077 47.8113 73.334 47.809 72.9319 47.8055C72.6119 48.7521 72.7727 50.4391 72.7845 51.6394C73.2456 51.7984 74.0252 51.7963 74.7014 51.7868Z" fill="#5632AC"/>
<path fill-rule="evenodd" clip-rule="evenodd" d="M26.483 51.9343C27.0236 51.9343 27.5644 51.9343 28.1051 51.9343C28.1051 51.8851 28.1051 51.836 28.1051 51.7868C28.1542 51.7868 28.2034 51.7868 28.2525 51.7868C28.2525 50.5582 28.2525 49.3291 28.2525 48.1004C27.5499 48.1164 27.1926 48.2665 26.6305 48.3953C26.3358 49.2651 26.4714 50.8161 26.483 51.9343V51.9343Z" fill="#5632AC"/>
<path fill-rule="evenodd" clip-rule="evenodd" d="M25.5983 48.8377C24.984 48.8271 24.5914 48.8714 24.2712 49.1326C23.9191 49.6732 24.1043 51.2614 24.1237 52.0817C24.3472 52.1607 24.3734 52.1813 24.7136 52.2292C24.8621 52.127 25.3032 52.0394 25.4508 51.9343C25.5 51.9343 25.5492 51.9343 25.5983 51.9343C25.5983 50.9022 25.5983 49.8698 25.5983 48.8377V48.8377Z" fill="#5632AC"/>
<path fill-rule="evenodd" clip-rule="evenodd" d="M24.1237 54.2936C24.1237 55.2765 24.1237 56.2598 24.1237 57.2427C24.2712 57.2919 24.4187 57.341 24.5661 57.3902C24.8499 57.6037 25.234 57.6529 25.4508 57.5377C25.8187 56.9715 25.6177 55.2926 25.5983 54.441C25.5492 54.441 25.5 54.441 25.4508 54.441C25.4508 54.3919 25.4508 54.3427 25.4508 54.2936C25.0085 54.2936 24.566 54.2936 24.1237 54.2936V54.2936Z" fill="#5632AC"/>
<path fill-rule="evenodd" clip-rule="evenodd" d="M28.2525 58.4224C28.2525 57.1445 28.2525 55.8663 28.2525 54.5885C27.7119 54.5393 27.1711 54.4902 26.6305 54.441C26.3358 55.3108 26.4714 56.8618 26.483 57.98C26.5813 57.98 26.6796 57.98 26.778 57.98C27.12 58.2508 27.7108 58.3613 28.2525 58.4224V58.4224Z" fill="#5632AC"/>
<path fill-rule="evenodd" clip-rule="evenodd" d="M72.7845 58.7173C73.5752 58.714 74.07 58.5618 74.7014 58.4224C74.7014 57.1937 74.7014 55.9646 74.7014 54.736C74.425 54.6398 74.1245 54.5956 73.6692 54.5885C73.4783 54.7179 73.3055 54.7204 72.9319 54.736C72.9319 54.7851 72.9319 54.8343 72.9319 54.8834C72.8828 54.8834 72.8336 54.8834 72.7845 54.8834C72.7845 56.1613 72.7845 57.4395 72.7845 58.7173Z" fill="#5632AC"/>
<path fill-rule="evenodd" clip-rule="evenodd" d="M69.5404 54.8834C69.2001 55.8502 69.2056 58.487 69.5404 59.4546C70.1802 59.3259 70.6619 59.1815 71.4574 59.1597C71.9248 58.2687 71.7704 56.3839 71.7523 55.0309C71.7031 55.0309 71.654 55.0309 71.6048 55.0309C71.6048 54.9817 71.6048 54.9325 71.6048 54.8834C70.9168 54.8834 70.2285 54.8834 69.5404 54.8834Z" fill="#5632AC"/>
<path fill-rule="evenodd" clip-rule="evenodd" d="M33.1186 55.1783C33.1186 56.7019 33.1186 58.2259 33.1186 59.7495C33.266 59.7986 33.4135 59.8478 33.5609 59.897C33.9311 60.1646 34.6393 60.2771 35.183 60.3393C35.6052 59.0827 35.3426 56.8566 35.3305 55.3258C35.2321 55.3258 35.1338 55.3258 35.0355 55.3258C34.6703 55.0833 33.723 55.1601 33.1186 55.1783V55.1783Z" fill="#5632AC"/>
<path fill-rule="evenodd" clip-rule="evenodd" d="M64.9693 55.1783C64.2392 55.6438 62.147 55.4862 61.1354 55.4733C60.6837 56.3522 60.8405 58.1224 60.8405 59.4546C60.8405 62.4034 60.8405 65.3532 60.8405 68.302C61.0769 68.3842 61.1949 68.42 61.5778 68.4495C62.1845 67.9853 65.3282 67.2476 65.5591 66.8275C65.5591 62.994 65.5591 59.1593 65.5591 55.3258C65.5099 55.3258 65.4608 55.3258 65.4116 55.3258C65.4116 55.2766 65.4116 55.2275 65.4116 55.1783C65.2642 55.1783 65.1167 55.1783 64.9693 55.1783Z" fill="#5632AC"/>
<path fill-rule="evenodd" clip-rule="evenodd" d="M36.805 55.4733C36.3571 56.8078 36.6454 59.1679 36.6576 60.7817C36.7067 60.7817 36.7559 60.7817 36.805 60.7817C36.805 60.8309 36.805 60.88 36.805 60.9292C37.6405 61.1258 38.4763 61.3224 39.3118 61.519C39.7983 60.0672 39.4716 57.5066 39.4592 55.7681C39.361 55.7681 39.2626 55.7681 39.1643 55.7681C38.6707 55.4438 37.5622 55.4637 36.805 55.4733Z" fill="#5632AC"/>
<path fill-rule="evenodd" clip-rule="evenodd" d="M51.4032 56.2105C51.4032 59.7983 51.4032 63.3871 51.4032 66.9749C51.4032 68.558 51.1174 70.8277 51.5507 72.1359C53.1809 71.7922 54.6687 70.9299 56.1218 70.3664C56.6215 70.1727 57.9515 70.0578 58.1862 69.6291C58.1862 65.0584 58.1862 60.4863 58.1862 55.9156C57.7252 55.7566 56.9456 55.7586 56.2693 55.7681C55.6078 56.1796 52.3565 56.107 51.4032 56.2105V56.2105Z" fill="#5632AC"/>
<path fill-rule="evenodd" clip-rule="evenodd" d="M41.6711 55.9156C41.1461 57.4847 41.5113 60.2456 41.5236 62.1088C41.5728 62.1088 41.6219 62.1088 41.6711 62.1088C41.6711 62.158 41.6711 62.2071 41.6711 62.2563C42.871 62.421 43.6849 63.0202 45.0626 63.141C45.0626 63.0427 45.0626 62.9444 45.0626 62.8461C45.5532 62.0719 45.2265 57.6558 45.2101 56.358C45.1609 56.358 45.1118 56.358 45.0626 56.358C45.0626 56.3089 45.0626 56.2597 45.0626 56.2105C43.9322 56.1122 42.8015 56.0139 41.6711 55.9156V55.9156Z" fill="#5632AC"/>
</svg>
