<svg width="100" height="100" viewBox="0 0 100 100" fill="none" xmlns="http://www.w3.org/2000/svg">
<path fill-rule="evenodd" clip-rule="evenodd" d="M49.716 9.65271C54.7889 10.0632 57.4228 12.2968 60.7753 14.3713C62.0874 15.1832 63.443 15.6261 64.7566 16.4357C68.7998 18.9274 73.0995 21.3142 77.143 23.8085C81.3176 26.3837 83.8108 27.0136 85.843 31.9187C86.5384 33.5973 86.2854 36.2869 86.2854 38.5543C86.2854 42.9284 86.2854 47.3038 86.2854 51.6779C86.2854 55.2165 86.2854 58.7562 86.2854 62.2948C86.2853 64.321 86.4602 66.5557 85.843 68.0456C83.8139 72.9432 81.318 73.5883 77.143 76.1557C72.5156 79.0014 67.6096 81.7199 62.9871 84.5608C62.2499 85.0139 61.5078 85.1426 60.7753 85.593C57.4833 87.6171 54.9326 89.6721 50.1584 90.3116C47.7631 90.6325 45.2963 89.2142 43.9652 88.3947C40.7409 86.4096 37.3836 84.7371 34.233 82.7913C30.4384 80.4477 26.4634 78.4573 22.7314 76.1557C18.5566 73.5811 16.0635 72.9501 14.0315 68.0456C13.2835 66.2403 13.589 63.2435 13.5891 60.8202C13.5891 56.0038 13.5891 51.1859 13.5891 46.3695C13.5891 43.3715 13.5891 40.3726 13.5891 37.3746C13.5891 35.4318 13.4404 33.3457 14.0315 31.9187C16.3564 26.3054 20.6947 25.1543 25.5331 22.1865C31.8563 18.308 38.5081 14.6823 44.85 10.8323C45.882 10.4883 46.9145 10.1442 47.9465 9.80011C48.552 9.64991 49.3009 9.92951 49.716 9.65271Z" fill="#EEEEEE"/>
<path fill-rule="evenodd" clip-rule="evenodd" d="M31.7915 64.0258C27.8521 64.3644 28.4591 64.1138 25.5983 62.5512C24.9347 62.1887 23.556 61.8854 23.239 61.2241C23.239 56.3093 23.239 51.3931 23.239 46.4784C24.7124 45.561 26.8463 44.3561 28.5474 43.8242C29.6287 43.9225 30.7102 44.0208 31.7915 44.1191C31.775 41.6186 31.503 38.5419 31.9389 36.3039C33.354 35.5654 34.5082 34.3889 35.7728 33.5022C38.0928 31.8756 40.3836 30.4107 42.7033 28.7836C43.6162 28.1432 45.9016 25.9627 46.8321 25.687C47.5871 25.4632 49.8149 26.8744 50.371 27.1615C53.6256 28.842 56.9161 30.3692 60.1032 32.0276C62.1035 33.0684 64.2048 33.9647 66.1489 34.9768C66.9965 35.418 68.0177 35.5028 68.3608 36.4513C68.8107 37.1589 68.5248 41.0177 68.5082 42.2022C68.5574 42.2022 68.6066 42.2022 68.6557 42.2022C68.6557 42.2513 68.6557 42.3005 68.6557 42.3496C70.7578 42.599 72.9778 43.5838 74.8489 44.2666C75.492 44.5012 76.3531 44.4309 76.6184 45.0038C76.6184 50.9998 76.6184 56.9976 76.6184 62.9935C76.4998 63.1441 76.566 63.034 76.4709 63.2885C75.2663 63.575 74.0191 64.3132 72.9319 64.763C71.0738 65.5319 69.2042 66.1126 67.476 66.8275C62.8965 68.7216 58.3495 69.956 53.7625 71.841C51.6811 72.6963 49.3627 74.1675 46.8321 74.3477C45.6991 73.3253 44.0469 72.9525 42.7033 72.1359C40.6606 70.8944 38.4049 69.6953 36.3626 68.4495C35.3093 67.8069 32.3358 66.8629 31.9389 65.7952C31.7118 65.4543 31.7739 64.6 31.7915 64.0258Z" fill="#5232A1"/>
<path fill-rule="evenodd" clip-rule="evenodd" d="M49.044 30.4056C48.4547 32.1706 48.884 35.2646 48.8965 37.3361C48.9457 37.3361 48.9949 37.3361 49.044 37.3361C49.044 37.3852 49.044 37.4344 49.044 37.4835C50.2214 37.6373 53.3314 39.1175 54.0576 38.8106C54.5319 38.0631 54.2215 33.8699 54.205 32.6174C52.5573 31.8757 50.8795 30.8629 49.044 30.4056Z" fill="#EEEEEE"/>
<path fill-rule="evenodd" clip-rule="evenodd" d="M44.7678 30.9954C43.6866 31.6835 42.605 32.3717 41.5237 33.0598C41.5237 35.0749 41.5237 37.0905 41.5237 39.1055C41.5729 39.1055 41.622 39.1055 41.6712 39.1055C41.6712 39.1547 41.6712 39.2038 41.6712 39.253C42.0612 39.1722 45.133 37.9149 45.2102 37.7784C45.2102 35.5668 45.2102 33.3545 45.2102 31.1429C45.161 31.1429 45.1119 31.1429 45.0627 31.1429C44.9121 31.0243 45.0223 31.0905 44.7678 30.9954Z" fill="#EEEEEE"/>
<path fill-rule="evenodd" clip-rule="evenodd" d="M57.5964 34.2395C57.5964 36.1562 57.5964 38.0736 57.5964 39.9903C57.7439 40.0394 57.8913 40.0886 58.0388 40.1378C58.562 40.5231 60.8282 41.2433 61.2829 41.0225C61.7083 40.3549 61.447 36.8305 61.4303 35.714C60.2536 35.1767 59.0758 34.3766 57.5964 34.2395Z" fill="#EEEEEE"/>
<path fill-rule="evenodd" clip-rule="evenodd" d="M36.6577 41.3174C40.2484 41.2297 39.5787 38.2525 39.4593 34.6818C39.4102 34.6818 39.3611 34.6818 39.3119 34.6818C39.3119 34.6327 39.3119 34.5835 39.3119 34.5344C39.2136 34.5344 39.1153 34.5344 39.017 34.5344C38.4997 35.1755 37.3572 35.7169 36.6577 36.1564C36.6577 37.8766 36.6577 39.5973 36.6577 41.3174Z" fill="#EEEEEE"/>
<path fill-rule="evenodd" clip-rule="evenodd" d="M63.7897 36.8937C63.7897 38.5647 63.7897 40.2362 63.7897 41.9072C63.8389 41.9072 63.888 41.9072 63.9372 41.9072C63.9372 41.9564 63.9372 42.0055 63.9372 42.0547C64.9786 42.1785 65.6644 42.6382 66.7388 42.792C66.7388 41.1701 66.7388 39.5478 66.7388 37.9259C65.6587 37.6603 65.0131 37.0204 63.7897 36.8937Z" fill="#EEEEEE"/>
<path fill-rule="evenodd" clip-rule="evenodd" d="M34.7407 37.1886C34.384 37.6237 33.4007 37.7907 33.1187 38.2208C33.1187 39.7444 33.1187 41.2684 33.1187 42.792C33.3422 42.8709 33.3684 42.8915 33.7085 42.9395C34.0562 42.6301 35.1298 42.4692 35.3306 42.0547C35.3306 40.482 35.3306 38.9088 35.3306 37.3361C35.2814 37.3361 35.2322 37.3361 35.1831 37.3361C35.1831 37.2869 35.1831 37.2378 35.1831 37.1886C35.0357 37.1886 34.8882 37.1886 34.7407 37.1886Z" fill="#EEEEEE"/>
<path fill-rule="evenodd" clip-rule="evenodd" d="M54.205 50.6072C54.205 48.543 54.205 46.4782 54.205 44.414C54.0576 44.3649 53.9101 44.3157 53.7626 44.2666C53.0272 43.7954 50.1042 43.4588 49.044 43.3818C48.4547 45.1468 48.884 48.2408 48.8965 50.3123C48.9949 50.3123 49.0932 50.3123 49.1915 50.3123C49.9006 50.7616 53.0144 50.6218 54.205 50.6072Z" fill="#EEEEEE"/>
<path fill-rule="evenodd" clip-rule="evenodd" d="M44.3254 43.6767C43.6184 44.1538 42.3375 44.0371 41.6712 44.5615C41.205 45.2957 41.5072 49.3774 41.5237 50.6072C41.8002 50.7033 42.1007 50.7476 42.5559 50.7547C43.1873 50.3776 44.4848 50.7032 45.0627 50.3123C45.5533 49.5381 45.2266 45.122 45.2102 43.8242C45.161 43.8242 45.1119 43.8242 45.0627 43.8242C45.0627 43.775 45.0627 43.7259 45.0627 43.6767C44.817 43.6767 44.5712 43.6767 44.3254 43.6767Z" fill="#EEEEEE"/>
<path fill-rule="evenodd" clip-rule="evenodd" d="M57.5964 45.0038C57.5964 46.9206 57.5964 48.8379 57.5964 50.7547C57.6456 50.7547 57.6947 50.7547 57.7439 50.7547C57.7439 50.8038 57.7439 50.853 57.7439 50.9021C58.9234 51.0004 60.1033 51.0987 61.2829 51.197C61.2829 51.1478 61.2829 51.0987 61.2829 51.0495C61.332 51.0495 61.3812 51.0495 61.4303 51.0495C61.4303 49.2311 61.4303 47.4121 61.4303 45.5937C60.1364 45.4513 59.02 45.056 57.5964 45.0038Z" fill="#EEEEEE"/>
<path fill-rule="evenodd" clip-rule="evenodd" d="M38.7221 45.1513C38.2693 45.4738 37.4062 45.6148 36.8051 45.7411C36.3572 47.0757 36.6455 49.4357 36.6577 51.0495C36.9163 51.1425 36.8009 51.078 36.9526 51.197C37.6013 51.0951 38.8679 51.1059 39.3119 50.7547C39.7455 50.0737 39.476 46.4378 39.4593 45.2987C39.4102 45.2987 39.3611 45.2987 39.3119 45.2987C39.3119 45.2496 39.3119 45.2004 39.3119 45.1513C39.1153 45.1513 38.9187 45.1513 38.7221 45.1513Z" fill="#EEEEEE"/>
<path fill-rule="evenodd" clip-rule="evenodd" d="M63.7896 51.197C64.6261 51.2926 65.7004 51.3457 66.7387 51.3444C66.7387 49.7718 66.7387 48.1986 66.7387 46.6259C66.6896 46.6259 66.6404 46.6259 66.5913 46.6259C66.5913 46.5767 66.5913 46.5275 66.5913 46.4784C65.7407 46.4342 64.4235 45.945 63.9371 46.1835C63.5279 46.8244 63.7728 50.1259 63.7896 51.197Z" fill="#EEEEEE"/>
<path fill-rule="evenodd" clip-rule="evenodd" d="M34.8882 46.1835C34.4551 46.4756 33.6703 46.4563 33.2662 46.7733C32.7387 47.597 33.0989 50.1781 33.1187 51.3444C33.217 51.3444 33.3153 51.3444 33.4136 51.3444C33.5496 51.3954 34.5987 51.3564 35.1831 51.3444C35.6053 50.0878 35.3427 47.8618 35.3306 46.3309C35.2814 46.3309 35.2322 46.3309 35.1831 46.3309C35.0325 46.2123 35.1427 46.2786 34.8882 46.1835Z" fill="#EEEEEE"/>
<path fill-rule="evenodd" clip-rule="evenodd" d="M69.5404 47.0682C69.1694 48.1694 69.381 50.1267 69.393 51.4919C69.9252 51.6747 70.8503 51.6498 71.6048 51.6394C71.9504 50.6156 71.7642 48.7933 71.7523 47.5106C71.654 47.5106 71.5557 47.5106 71.4574 47.5106C71.0376 47.2282 70.0881 47.1731 69.5404 47.0682Z" fill="#EEEEEE"/>
<path fill-rule="evenodd" clip-rule="evenodd" d="M74.7014 51.7868C74.7014 50.5582 74.7014 49.3291 74.7014 48.1004C74.4472 48.0121 74.2366 47.9692 73.8167 47.953C73.6077 47.8113 73.334 47.809 72.9319 47.8055C72.6119 48.7521 72.7727 50.4391 72.7845 51.6394C73.2456 51.7984 74.0252 51.7963 74.7014 51.7868Z" fill="#EEEEEE"/>
<path fill-rule="evenodd" clip-rule="evenodd" d="M26.4831 51.9343C27.0237 51.9343 27.5645 51.9343 28.1052 51.9343C28.1052 51.8851 28.1052 51.836 28.1052 51.7868C28.1543 51.7868 28.2035 51.7868 28.2526 51.7868C28.2526 50.5582 28.2526 49.3291 28.2526 48.1004C27.55 48.1164 27.1927 48.2665 26.6306 48.3953C26.3359 49.2651 26.4715 50.8161 26.4831 51.9343Z" fill="#EEEEEE"/>
<path fill-rule="evenodd" clip-rule="evenodd" d="M25.5984 48.8377C24.9841 48.8271 24.5915 48.8714 24.2713 49.1326C23.9192 49.6732 24.1044 51.2614 24.1238 52.0817C24.3473 52.1607 24.3735 52.1813 24.7137 52.2292C24.8622 52.127 25.3033 52.0394 25.4509 51.9343C25.5001 51.9343 25.5493 51.9343 25.5984 51.9343C25.5984 50.9022 25.5984 49.8698 25.5984 48.8377Z" fill="#EEEEEE"/>
<path fill-rule="evenodd" clip-rule="evenodd" d="M24.1238 54.2936C24.1238 55.2765 24.1238 56.2598 24.1238 57.2427C24.2713 57.2919 24.4188 57.341 24.5662 57.3902C24.85 57.6037 25.2341 57.6529 25.4509 57.5377C25.8188 56.9715 25.6178 55.2926 25.5984 54.441C25.5493 54.441 25.5001 54.441 25.4509 54.441C25.4509 54.3919 25.4509 54.3427 25.4509 54.2936C25.0086 54.2936 24.5661 54.2936 24.1238 54.2936Z" fill="#EEEEEE"/>
<path fill-rule="evenodd" clip-rule="evenodd" d="M28.2526 58.4224C28.2526 57.1445 28.2526 55.8663 28.2526 54.5885C27.712 54.5393 27.1712 54.4902 26.6306 54.441C26.3359 55.3108 26.4715 56.8618 26.4831 57.98C26.5814 57.98 26.6797 57.98 26.7781 57.98C27.1201 58.2508 27.7109 58.3613 28.2526 58.4224Z" fill="#EEEEEE"/>
<path fill-rule="evenodd" clip-rule="evenodd" d="M72.7845 58.7173C73.5752 58.714 74.07 58.5618 74.7014 58.4224C74.7014 57.1937 74.7014 55.9646 74.7014 54.736C74.425 54.6398 74.1245 54.5956 73.6692 54.5885C73.4783 54.7179 73.3055 54.7204 72.9319 54.736C72.9319 54.7851 72.9319 54.8343 72.9319 54.8834C72.8828 54.8834 72.8336 54.8834 72.7845 54.8834C72.7845 56.1613 72.7845 57.4395 72.7845 58.7173Z" fill="#EEEEEE"/>
<path fill-rule="evenodd" clip-rule="evenodd" d="M69.5405 54.8834C69.2002 55.8502 69.2057 58.487 69.5405 59.4546C70.1803 59.3259 70.662 59.1815 71.4575 59.1597C71.9249 58.2687 71.7705 56.3839 71.7524 55.0309C71.7032 55.0309 71.6541 55.0309 71.6049 55.0309C71.6049 54.9817 71.6049 54.9325 71.6049 54.8834C70.9169 54.8834 70.2286 54.8834 69.5405 54.8834Z" fill="#EEEEEE"/>
<path fill-rule="evenodd" clip-rule="evenodd" d="M33.1187 55.1783C33.1187 56.7019 33.1187 58.2259 33.1187 59.7495C33.2661 59.7986 33.4136 59.8478 33.561 59.897C33.9312 60.1646 34.6394 60.2771 35.1831 60.3393C35.6053 59.0827 35.3427 56.8566 35.3306 55.3258C35.2322 55.3258 35.1339 55.3258 35.0356 55.3258C34.6704 55.0833 33.7231 55.1601 33.1187 55.1783Z" fill="#EEEEEE"/>
<path fill-rule="evenodd" clip-rule="evenodd" d="M64.9693 55.1783C64.2392 55.6438 62.147 55.4862 61.1354 55.4733C60.6837 56.3522 60.8405 58.1224 60.8405 59.4546C60.8405 62.4034 60.8405 65.3532 60.8405 68.302C61.0769 68.3842 61.1949 68.42 61.5778 68.4495C62.1845 67.9853 65.3282 67.2476 65.5591 66.8275C65.5591 62.994 65.5591 59.1593 65.5591 55.3258C65.5099 55.3258 65.4608 55.3258 65.4116 55.3258C65.4116 55.2766 65.4116 55.2275 65.4116 55.1783C65.2642 55.1783 65.1167 55.1783 64.9693 55.1783Z" fill="#EEEEEE"/>
<path fill-rule="evenodd" clip-rule="evenodd" d="M36.8051 55.4733C36.3572 56.8078 36.6455 59.1679 36.6577 60.7817C36.7068 60.7817 36.756 60.7817 36.8051 60.7817C36.8051 60.8309 36.8051 60.88 36.8051 60.9292C37.6406 61.1258 38.4764 61.3224 39.3119 61.519C39.7984 60.0672 39.4717 57.5066 39.4593 55.7681C39.3611 55.7681 39.2627 55.7681 39.1644 55.7681C38.6708 55.4438 37.5623 55.4637 36.8051 55.4733Z" fill="#EEEEEE"/>
<path fill-rule="evenodd" clip-rule="evenodd" d="M51.4033 56.2105C51.4033 59.7983 51.4033 63.3871 51.4033 66.9749C51.4033 68.558 51.1175 70.8277 51.5508 72.1359C53.181 71.7922 54.6688 70.9299 56.1219 70.3664C56.6216 70.1727 57.9516 70.0578 58.1863 69.6291C58.1863 65.0584 58.1863 60.4863 58.1863 55.9156C57.7253 55.7566 56.9457 55.7586 56.2694 55.7681C55.6079 56.1796 52.3566 56.107 51.4033 56.2105Z" fill="#EEEEEE"/>
<path fill-rule="evenodd" clip-rule="evenodd" d="M41.6712 55.9156C41.1462 57.4847 41.5114 60.2456 41.5237 62.1088C41.5729 62.1088 41.622 62.1088 41.6712 62.1088C41.6712 62.158 41.6712 62.2071 41.6712 62.2563C42.8711 62.421 43.685 63.0202 45.0627 63.141C45.0627 63.0427 45.0627 62.9444 45.0627 62.8461C45.5533 62.0719 45.2266 57.6558 45.2102 56.358C45.161 56.358 45.1119 56.358 45.0627 56.358C45.0627 56.3089 45.0627 56.2597 45.0627 56.2105C43.9323 56.1122 42.8016 56.0139 41.6712 55.9156Z" fill="#EEEEEE"/>
</svg>
