<svg width="34" height="27" viewBox="0 0 34 27" fill="none" xmlns="http://www.w3.org/2000/svg">
<g clip-path="url(#clip0)">
<path d="M22.6153 13.5C21.7175 13.5 20.8728 13.0254 20.4159 12.266L17 6.64453L13.5894 12.266C13.1272 13.0307 12.2825 13.5053 11.3847 13.5053C11.1456 13.5053 10.9066 13.4736 10.6781 13.4051L3.39999 11.3379V20.7246C3.39999 21.4998 3.93124 22.1748 4.68561 22.3594L16.1712 25.2123C16.7131 25.3441 17.2816 25.3441 17.8181 25.2123L29.3144 22.3594C30.0687 22.1695 30.6 21.4945 30.6 20.7246V11.3379L23.3219 13.3998C23.0934 13.4684 22.8544 13.5 22.6153 13.5ZM33.9097 7.5832L31.1737 2.16211C31.009 1.83516 30.6531 1.64531 30.2865 1.69277L17 3.375L21.8716 11.3959C22.0734 11.7281 22.4772 11.8863 22.8544 11.7809L33.3678 8.80137C33.8937 8.64844 34.1487 8.06836 33.9097 7.5832ZM2.82624 2.16211L0.0903027 7.5832C-0.154072 8.06836 0.10624 8.64844 0.626865 8.79609L11.1403 11.7756C11.5175 11.8811 11.9212 11.7228 12.1231 11.3906L17 3.375L3.70812 1.69277C3.34155 1.65059 2.99093 1.83516 2.82624 2.16211Z" fill="#5231A1"/>
</g>
<defs>
<clipPath id="clip0">
<rect width="34" height="27" fill="white"/>
</clipPath>
</defs>
</svg>
