<svg width="24" height="24" viewBox="0 0 24 24" fill="none" xmlns="http://www.w3.org/2000/svg">
<path d="M18.75 22.16L16 19.16L17.16 18L18.75 19.59L22.34 16L23.5 17.41L18.75 22.16ZM13 13V7H11V13H13ZM13 17V15H11V17H13ZM12 2C17.5 2 22 6.5 22 12L21.91 13.31C21.0075 13.0081 20.0462 12.925 19.1053 13.0676C18.1644 13.2102 17.2709 13.5743 16.4984 14.13C15.7258 14.6857 15.0964 15.4171 14.6621 16.2638C14.2277 17.1105 14.0008 18.0484 14 19C14 19.95 14.22 20.85 14.62 21.65C13.78 21.88 12.91 22 12 22C6.5 22 2 17.5 2 12C2 6.5 6.5 2 12 2Z" fill="white"/>
</svg>
