<svg width="24" height="24" viewBox="0 0 24 24" fill="none" xmlns="http://www.w3.org/2000/svg">
<path d="M8.22044 16.7022L11.7734 16.6901L19.5282 9.00935C19.8325 8.70501 20 8.30085 20 7.87092C20 7.44099 19.8325 7.03683 19.5282 6.7325L18.2513 5.45559C17.6426 4.84693 16.5807 4.85015 15.9769 5.45318L8.22044 13.1355V16.7022ZM17.1129 6.59402L18.3922 7.86851L17.1064 9.14219L15.8295 7.86609L17.1129 6.59402ZM9.83066 13.807L14.6855 8.99807L15.9624 10.275L11.1084 15.0823L9.83066 15.0863V13.807Z" fill="#7491F9"/>
<path d="M6.61022 19.9121H17.8818C18.7698 19.9121 19.492 19.19 19.492 18.3019V11.3232L17.8818 12.9335V18.3019H9.15276C9.13182 18.3019 9.11009 18.31 9.08915 18.31C9.06258 18.31 9.03602 18.3027 9.00864 18.3019H6.61022V7.03039H12.1228L13.733 5.42017H6.61022C5.72218 5.42017 5 6.14235 5 7.03039V18.3019C5 19.19 5.72218 19.9121 6.61022 19.9121Z" fill="#7491F9"/>
</svg>
