<svg width="36" height="36" viewBox="0 0 36 36" fill="none" xmlns="http://www.w3.org/2000/svg">
<path d="M8 11V12.12C8.00188 12.2519 8.05579 12.3777 8.15 12.47L15.43 19.83C15.5242 19.9223 15.5781 20.0481 15.58 20.18V27.07C15.5798 27.1637 15.606 27.2556 15.6555 27.3352C15.705 27.4147 15.7758 27.4788 15.86 27.52L19.81 28.93C19.8863 28.9674 19.9709 28.9847 20.0557 28.9803C20.1406 28.976 20.2229 28.95 20.295 28.905C20.3671 28.86 20.4264 28.7973 20.4676 28.7229C20.5087 28.6486 20.5302 28.565 20.53 28.48V20.09C20.5438 19.9548 20.6081 19.8299 20.71 19.74L27.83 12.49C27.9242 12.3977 27.9781 12.2719 27.98 12.14V11H8Z" fill="white"/>
</svg>
