<svg width="60" height="61" viewBox="0 0 60 61" fill="none" xmlns="http://www.w3.org/2000/svg">
<g clip-path="url(#clip0)">
<path d="M59.6991 44.1011C59.6565 44.0583 59.6092 44.0204 59.5581 43.9881C58.0691 42.7891 45.2011 32.3961 38.4941 26.3141C38.7121 25.6741 38.6351 25.4101 38.6351 25.4101L32.2611 19.0351C32.2611 19.0351 32.3491 19.2591 32.1821 19.8221C26.0291 12.8491 17.1181 1.81505 16.0141 0.443056C16.0251 0.459056 16.0291 0.481055 16.0371 0.498055C15.9951 0.427055 15.9541 0.356056 15.8971 0.301056C14.6941 -0.901944 10.2271 1.61405 5.91916 5.92205C1.61216 10.2291 -0.90284 14.6961 0.30016 15.9001C0.36117 15.9548 0.428676 16.0018 0.50116 16.0401C0.48216 16.0291 0.45916 16.0251 0.44016 16.0141C1.81316 17.1211 12.8511 26.0351 19.8221 32.1871C19.2551 32.3551 19.0331 32.2601 19.0331 32.2601L25.4071 38.6361C25.4071 38.6361 25.6651 38.7281 26.3181 38.5031C32.4021 45.2101 42.7861 58.0691 43.9861 59.5601C44.0201 59.6091 44.0581 59.6561 44.1011 59.7011C44.3041 59.9041 44.6011 60.0021 44.9751 60.0021C46.8111 60.0021 50.5001 57.6601 54.0791 54.0821C58.3871 49.7731 60.9021 45.3051 59.6991 44.1011ZM7.39916 5.86305C9.05116 4.21205 10.7391 3.22405 11.1711 3.65605C11.2422 3.73546 11.2792 3.83962 11.2741 3.94605C10.7871 3.78305 9.55416 4.51305 8.36816 5.70005C7.06816 7.00005 6.31516 8.35505 6.68516 8.72305C6.84216 8.88205 7.17916 8.83405 7.61616 8.62805C6.47616 9.51605 5.50716 9.94605 5.19316 9.63305C4.76116 9.20305 5.75016 7.51505 7.39916 5.86305ZM2.33716 13.8631C1.97616 13.5021 2.08816 12.7281 2.56716 11.7081C2.56859 11.8551 2.62413 11.9964 2.72316 12.1051C3.40016 12.7821 6.04916 11.2311 8.64116 8.64305C11.2321 6.05205 12.7811 3.40205 12.1031 2.72505C11.8471 2.46905 11.3091 2.53105 10.5981 2.84805C12.6161 1.41405 14.2661 0.779055 14.8441 1.35605C15.7471 2.26005 13.6801 5.79305 10.2271 9.24605C6.77316 12.7001 3.23916 14.7671 2.33716 13.8631ZM13.2561 11.4771L12.8601 11.8781C12.3911 12.3451 11.9211 12.7951 11.4461 13.2271L25.9321 27.7111C25.3321 28.2871 24.7861 28.7861 24.2801 29.2261L8.86416 15.3861C8.15416 15.9281 7.44716 16.4261 6.75516 16.8731L22.2961 30.8241C22.0521 31.0001 21.8371 31.1391 21.6251 31.2771C16.5511 26.7631 9.04016 20.5851 4.64616 17.0061C6.99816 15.7701 9.56816 13.6411 11.6051 11.6031C12.4681 10.7391 15.4041 7.69205 17.0021 4.64205C20.4711 8.90406 26.7121 16.4941 31.2731 21.6211C31.1811 21.7631 31.1031 21.8931 30.9951 22.0501L17.2241 6.71205C16.734 7.41213 16.2186 8.09424 15.6791 8.75705L29.4181 24.0611C28.8667 24.7006 28.2975 25.3245 27.7111 25.9321L13.2561 11.4771ZM52.7541 52.7541C49.3581 56.1501 46.4091 57.8641 45.2181 58.0971C43.5591 56.0391 34.0161 44.2441 28.0421 37.6131C29.2361 36.8401 30.9101 35.5061 33.2071 33.2091C34.096 32.3261 34.95 31.4088 35.7671 30.4591L54.9911 49.1601L56.6271 47.2381L37.3241 28.4641C37.4321 28.3081 37.5121 28.1761 37.6021 28.0341C44.1351 33.9191 55.6771 43.2641 58.1001 45.2201C57.8811 46.2911 56.2651 49.2431 52.7541 52.7541Z" fill="white"/>
</g>
<defs>
<clipPath id="clip0">
<rect width="60" height="61" fill="white"/>
</clipPath>
</defs>
</svg>
