<svg width="60" height="61" viewBox="0 0 60 61" fill="none" xmlns="http://www.w3.org/2000/svg">
<path d="M59.699 44.101C59.6564 44.0582 59.6091 44.0203 59.558 43.988C58.069 42.789 45.201 32.396 38.494 26.314C38.712 25.674 38.635 25.41 38.635 25.41L32.261 19.035C32.261 19.035 32.349 19.259 32.182 19.822C26.029 12.849 17.118 1.81499 16.014 0.442995C16.025 0.458995 16.029 0.480994 16.037 0.497994C15.995 0.426994 15.954 0.355995 15.897 0.300995C14.694 -0.902005 10.227 1.61399 5.91904 5.92199C1.61204 10.229 -0.902962 14.696 0.300038 15.9C0.361048 15.9547 0.428554 16.0017 0.501038 16.04C0.482038 16.029 0.459038 16.025 0.440038 16.014C1.81304 17.121 12.851 26.035 19.822 32.187C19.255 32.355 19.033 32.26 19.033 32.26L25.407 38.636C25.407 38.636 25.665 38.728 26.318 38.503C32.402 45.21 42.786 58.069 43.986 59.56C44.02 59.609 44.058 59.656 44.101 59.701C44.304 59.904 44.601 60.002 44.975 60.002C46.811 60.002 50.5 57.66 54.079 54.082C58.387 49.773 60.902 45.305 59.699 44.101V44.101ZM7.39904 5.86299C9.05104 4.21199 10.739 3.22399 11.171 3.65599C11.2421 3.7354 11.2791 3.83956 11.274 3.94599C10.787 3.78299 9.55404 4.51299 8.36804 5.69999C7.06804 6.99999 6.31504 8.35499 6.68504 8.72299C6.84204 8.88199 7.17904 8.83399 7.61604 8.62799C6.47604 9.51599 5.50704 9.94599 5.19304 9.63299C4.76104 9.20299 5.75004 7.51499 7.39904 5.86299V5.86299ZM2.33704 13.863C1.97604 13.502 2.08804 12.728 2.56704 11.708C2.56847 11.855 2.62401 11.9963 2.72304 12.105C3.40004 12.782 6.04904 11.231 8.64104 8.64299C11.232 6.05199 12.781 3.40199 12.103 2.72499C11.847 2.46899 11.309 2.53099 10.598 2.84799C12.616 1.41399 14.266 0.778994 14.844 1.35599C15.747 2.25999 13.68 5.79299 10.227 9.24599C6.77304 12.7 3.23904 14.767 2.33704 13.863V13.863ZM13.256 11.477L12.86 11.878C12.391 12.345 11.921 12.795 11.446 13.227L25.932 27.711C25.332 28.287 24.786 28.786 24.28 29.226L8.86404 15.386C8.15404 15.928 7.44704 16.426 6.75504 16.873L22.296 30.824C22.052 31 21.837 31.139 21.625 31.277C16.551 26.763 9.04004 20.585 4.64604 17.006C6.99804 15.77 9.56804 13.641 11.605 11.603C12.468 10.739 15.404 7.69199 17.002 4.64199C20.471 8.904 26.712 16.494 31.273 21.621C31.181 21.763 31.103 21.893 30.995 22.05L17.224 6.71199C16.7339 7.41207 16.2185 8.09418 15.679 8.75699L29.418 24.061C28.8666 24.7005 28.2974 25.3244 27.711 25.932L13.256 11.477ZM52.754 52.754C49.358 56.15 46.409 57.864 45.218 58.097C43.559 56.039 34.016 44.244 28.042 37.613C29.236 36.84 30.91 35.506 33.207 33.209C34.0959 32.326 34.9499 31.4087 35.767 30.459L54.991 49.16L56.627 47.238L37.324 28.464C37.432 28.308 37.512 28.176 37.602 28.034C44.135 33.919 55.677 43.264 58.1 45.22C57.881 46.291 56.265 49.243 52.754 52.754" fill="#5231A1"/>
</svg>
