<svg width="24" height="27" viewBox="0 0 24 27" fill="none" xmlns="http://www.w3.org/2000/svg">
<g filter="url(#filter0_d)">
<path d="M4.46602 12.248C4.18735 11.6287 4.03371 10.9605 4.01391 10.2818C3.99411 9.60299 4.10854 8.92698 4.35064 8.29252C4.59273 7.65807 4.95773 7.07766 5.42468 6.58461C5.89163 6.09156 6.45134 5.69556 7.0717 5.41935C7.69206 5.14314 8.36086 4.99214 9.03972 4.97503C9.71858 4.95791 10.3941 5.07501 11.0276 5.31962C11.6611 5.56422 12.2401 5.93151 12.7313 6.4004C13.2225 6.8693 13.6163 7.43057 13.89 8.05202L15.114 10.802L16.778 12.42C16.8657 12.5055 16.9311 12.6111 16.9686 12.7277C17.006 12.8443 17.0143 12.9682 16.9928 13.0888C16.9713 13.2093 16.9206 13.3228 16.8452 13.4192C16.7697 13.5156 16.6718 13.5921 16.56 13.642L6.83302 17.973C6.7211 18.0227 6.59871 18.0443 6.47653 18.0358C6.35435 18.0274 6.23611 17.9891 6.13214 17.9244C6.02816 17.8597 5.94161 17.7705 5.88006 17.6646C5.8185 17.5587 5.78381 17.4394 5.77902 17.317L5.68901 14.997L4.46602 12.248Z" fill="white"/>
<path d="M10.8301 17.3361C11.0247 17.6299 11.3171 17.8453 11.6555 17.9439C11.9938 18.0425 12.3562 18.0179 12.6782 17.8746C13.0002 17.7313 13.261 17.4785 13.4142 17.1611C13.5674 16.8438 13.6032 16.4824 13.5151 16.1411L10.8301 17.3361Z" fill="white"/>
<path d="M14.0862 4.72705C14.1605 4.61729 14.2754 4.54153 14.4055 4.5164C14.5356 4.49127 14.6704 4.51884 14.7802 4.59305C16.3872 5.67805 17.4952 7.23105 17.6682 9.01705C17.6842 9.17705 17.6922 9.34005 17.6922 9.50405C17.6922 9.63666 17.6395 9.76384 17.5458 9.8576C17.452 9.95137 17.3248 10.004 17.1922 10.004C17.0596 10.004 16.9324 9.95137 16.8387 9.8576C16.7449 9.76384 16.6922 9.63666 16.6922 9.50405C16.6918 9.3738 16.6852 9.24365 16.6722 9.11405C16.5362 7.69605 15.6482 6.38605 14.2202 5.42105C14.1105 5.34675 14.0347 5.23192 14.0096 5.10179C13.9844 4.97165 14.012 4.83687 14.0862 4.72705Z" fill="white"/>
<path d="M14.5759 2.24207C14.6102 2.18603 14.6552 2.13731 14.7084 2.09868C14.7616 2.06006 14.8218 2.03229 14.8857 2.01697C14.9496 2.00164 15.0159 1.99906 15.0808 2.00938C15.1457 2.01969 15.2079 2.04269 15.2639 2.07707C17.7219 3.58307 19.8439 5.88206 19.9999 9.98006C20.0024 10.0458 19.9919 10.1113 19.9691 10.1729C19.9463 10.2345 19.9116 10.291 19.8669 10.3392C19.8222 10.3874 19.7685 10.4263 19.7088 10.4538C19.6491 10.4812 19.5846 10.4966 19.5189 10.4991C19.4532 10.5016 19.3877 10.4911 19.3261 10.4683C19.2645 10.4455 19.208 10.4108 19.1598 10.3661C19.1116 10.3214 19.0727 10.2677 19.0452 10.208C19.0178 10.1483 19.0024 10.0838 18.9999 10.0181C18.8599 6.34207 16.9989 4.31207 14.7409 2.92807C14.628 2.85877 14.5472 2.74751 14.5163 2.6187C14.4854 2.4899 14.5068 2.35408 14.5759 2.24107V2.24207Z" fill="white"/>
</g>
<defs>
<filter id="filter0_d" x="-2" y="0" width="28" height="28" filterUnits="userSpaceOnUse" color-interpolation-filters="sRGB">
<feFlood flood-opacity="0" result="BackgroundImageFix"/>
<feColorMatrix in="SourceAlpha" type="matrix" values="0 0 0 0 0 0 0 0 0 0 0 0 0 0 0 0 0 0 127 0"/>
<feOffset dy="4"/>
<feGaussianBlur stdDeviation="2"/>
<feColorMatrix type="matrix" values="0 0 0 0 0 0 0 0 0 0 0 0 0 0 0 0 0 0 0.25 0"/>
<feBlend mode="normal" in2="BackgroundImageFix" result="effect1_dropShadow"/>
<feBlend mode="normal" in="SourceGraphic" in2="effect1_dropShadow" result="shape"/>
</filter>
</defs>
</svg>
