<svg width="20" height="20" viewBox="0 0 20 20" fill="none" xmlns="http://www.w3.org/2000/svg">
<path d="M2.46602 12.248C2.18735 11.6287 2.03371 10.9605 2.01391 10.2818C1.99411 9.60297 2.10854 8.92696 2.35064 8.2925C2.59273 7.65805 2.95773 7.07764 3.42468 6.58459C3.89163 6.09154 4.45134 5.69554 5.0717 5.41933C5.69206 5.14312 6.36086 4.99212 7.03972 4.97501C7.71858 4.95789 8.39414 5.07499 9.02763 5.3196C9.66112 5.5642 10.2401 5.93149 10.7313 6.40038C11.2225 6.86928 11.6163 7.43055 11.89 8.052L13.114 10.802L14.778 12.42C14.8657 12.5055 14.9311 12.6111 14.9686 12.7277C15.006 12.8443 15.0143 12.9682 14.9928 13.0888C14.9713 13.2093 14.9206 13.3228 14.8452 13.4192C14.7697 13.5156 14.6718 13.5921 14.56 13.642L4.83302 17.973C4.7211 18.0227 4.59871 18.0443 4.47653 18.0358C4.35435 18.0274 4.23611 17.9891 4.13214 17.9244C4.02816 17.8597 3.94161 17.7705 3.88006 17.6646C3.8185 17.5587 3.78381 17.4394 3.77902 17.317L3.68901 14.997L2.46602 12.248Z" fill="white"/>
<path d="M8.83002 17.336C9.02462 17.6298 9.31708 17.8452 9.65543 17.9438C9.99379 18.0424 10.3561 18.0178 10.6781 17.8745C11.0001 17.7312 11.2609 17.4784 11.4141 17.161C11.5673 16.8437 11.6031 16.4823 11.515 16.141L8.83002 17.336Z" fill="white"/>
<path d="M12.086 4.727C12.1603 4.61724 12.2752 4.54148 12.4053 4.51635C12.5354 4.49122 12.6702 4.51879 12.78 4.593C14.387 5.678 15.495 7.231 15.668 9.017C15.684 9.177 15.692 9.34 15.692 9.504C15.692 9.63661 15.6393 9.76379 15.5456 9.85755C15.4518 9.95132 15.3246 10.004 15.192 10.004C15.0594 10.004 14.9322 9.95132 14.8385 9.85755C14.7447 9.76379 14.692 9.63661 14.692 9.504C14.6916 9.37375 14.685 9.2436 14.672 9.114C14.536 7.696 13.648 6.386 12.22 5.421C12.1103 5.3467 12.0345 5.23187 12.0094 5.10174C11.9842 4.9716 12.0118 4.83682 12.086 4.727V4.727Z" fill="white"/>
<path d="M12.576 2.242C12.6103 2.18596 12.6553 2.13724 12.7085 2.09861C12.7617 2.05999 12.8219 2.03222 12.8858 2.0169C12.9497 2.00157 13.016 1.99899 13.0809 2.00931C13.1458 2.01962 13.208 2.04262 13.264 2.077C15.722 3.583 17.844 5.882 18 9.98C18.0025 10.0457 17.992 10.1112 17.9692 10.1728C17.9464 10.2344 17.9117 10.2909 17.867 10.3391C17.8223 10.3873 17.7686 10.4262 17.7089 10.4537C17.6492 10.4811 17.5847 10.4965 17.519 10.499C17.4533 10.5015 17.3878 10.491 17.3262 10.4682C17.2646 10.4454 17.2081 10.4107 17.1599 10.366C17.1117 10.3213 17.0728 10.2676 17.0453 10.2079C17.0179 10.1482 17.0025 10.0837 17 10.018C16.86 6.342 14.999 4.312 12.741 2.928C12.6281 2.8587 12.5473 2.74744 12.5164 2.61863C12.4855 2.48983 12.5069 2.35401 12.576 2.241V2.242Z" fill="white"/>
</svg>
