<svg width="26" height="26" viewBox="0 0 26 26" fill="none" xmlns="http://www.w3.org/2000/svg">
<path d="M22.1072 17.7089C20.9467 16.4515 19.5384 15.4481 17.971 14.7617C16.4036 14.0754 14.7111 13.7211 13 13.7211C11.2889 13.7211 9.59639 14.0754 8.02899 14.7617C6.46159 15.4481 5.05329 16.4515 3.89278 17.7089C3.71361 17.907 3.61338 18.164 3.61111 18.4311V22.7644C3.61491 23.0492 3.73072 23.3211 3.93348 23.5212C4.13623 23.7212 4.40962 23.8334 4.69445 23.8333H21.3056C21.5929 23.8333 21.8684 23.7192 22.0716 23.516C22.2748 23.3129 22.3889 23.0373 22.3889 22.75V18.4167C22.3831 18.1546 22.2831 17.9033 22.1072 17.7089Z" fill="#5231A1"/>
<path d="M13 12.2778C15.7921 12.2778 18.0556 10.0143 18.0556 7.22222C18.0556 4.43011 15.7921 2.16666 13 2.16666C10.2079 2.16666 7.94444 4.43011 7.94444 7.22222C7.94444 10.0143 10.2079 12.2778 13 12.2778Z" fill="#5231A1"/>
</svg>
