<svg width="1024" height="1024" viewBox="0 0 1024 1024" fill="none" xmlns="http://www.w3.org/2000/svg">
<path d="M960 1024H64C46 1024 30.8333 1017.83 18.5 1005.5C6.16667 993.167 0 978 0 960V320C0 302.667 6.16667 287.667 18.5 275C30.8333 262.333 46 256 64 256H384V320C384 363.333 395.833 395.5 419.5 416.5C443.167 437.5 474 448 512 448C549.333 448 580 437 604 415C628 393 640 361.333 640 320V256H960C977.333 256 992.333 262.333 1005 275C1017.67 287.667 1024 302.667 1024 320V960C1024 978 1017.83 993.167 1005.5 1005.5C993.167 1017.83 978 1024 960 1024ZM352 806V788C416 762 448 691.333 448 576C448 534 433.167 502.167 403.5 480.5C373.833 458.833 335.5 448 288.5 448C241.5 448 203 458.833 173 480.5C143 502.167 128 534 128 576C128 688 160 758 224 786V806C178 814 140 829 110 851C80 873 64.6667 898 64 926C64 934 71.1667 940.5 85.5 945.5C99.8333 950.5 120.833 954 148.5 956C176.167 958 199 959.167 217 959.5C235 959.833 258.667 960 288 960C317.333 960 341 959.833 359 959.5C377 959.167 399.833 958 427.5 956C455.167 954 476.167 950.5 490.5 945.5C504.833 940.5 512 934 512 926C511.333 898 496.167 873 466.5 851C436.833 829 398.667 814 352 806ZM864 576H608C599.333 576 591.833 579.167 585.5 585.5C579.167 591.833 576 599.333 576 608C576 616.667 579.167 624.167 585.5 630.5C591.833 636.833 599.333 640 608 640H864C872.667 640 880.167 636.833 886.5 630.5C892.833 624.167 896 616.667 896 608C896 599.333 892.833 591.833 886.5 585.5C880.167 579.167 872.667 576 864 576ZM576 736C576 744.667 579.167 752.167 585.5 758.5C591.833 764.833 599.333 768 608 768H736C744.667 768 752.167 764.833 758.5 758.5C764.833 752.167 768 744.667 768 736C768 727.333 764.833 719.833 758.5 713.5C752.167 707.167 744.667 704 736 704H608C599.333 704 591.833 707.167 585.5 713.5C579.167 719.833 576 727.333 576 736ZM864 832H608C599.333 832 591.833 835.167 585.5 841.5C579.167 847.833 576 855.333 576 864C576 872.667 579.167 880.167 585.5 886.5C591.833 892.833 599.333 896 608 896H864C872.667 896 880.167 892.833 886.5 886.5C892.833 880.167 896 872.667 896 864C896 855.333 892.833 847.833 886.5 841.5C880.167 835.167 872.667 832 864 832ZM576 128V320C576 338 569.667 353.167 557 365.5C544.333 377.833 529.167 384 511.5 384C493.833 384 478.833 377.833 466.5 365.5C454.167 353.167 448 338 448 320V128C430 128 414.833 121.833 402.5 109.5C390.167 97.1667 384 82.1667 384 64.5C384 46.8333 390.167 31.6667 402.5 19C414.833 6.33333 430 0 448 0H576C593.333 0 608.333 6.33333 621 19C633.667 31.6667 640 46.8333 640 64.5C640 82.1667 633.833 97.1667 621.5 109.5C609.167 121.833 594 128 576 128Z" fill="white"/>
</svg>
