<svg width="26" height="26" viewBox="0 0 26 26" fill="none" xmlns="http://www.w3.org/2000/svg">
<path d="M22.1074 17.709C20.9469 16.4516 19.5386 15.4482 17.9712 14.7618C16.4038 14.0755 14.7113 13.7212 13.0002 13.7212C11.2891 13.7212 9.59661 14.0755 8.02921 14.7618C6.46181 15.4482 5.05351 16.4516 3.893 17.709C3.71383 17.9071 3.6136 18.1641 3.61133 18.4312V22.7645C3.61513 23.0493 3.73094 23.3212 3.9337 23.5213C4.13645 23.7213 4.40984 23.8335 4.69467 23.8334H21.3058C21.5931 23.8334 21.8686 23.7193 22.0718 23.5161C22.275 23.313 22.3891 23.0374 22.3891 22.7501V18.4168C22.3833 18.1547 22.2833 17.9034 22.1074 17.709Z" fill="white"/>
<path d="M12.9999 12.2779C15.792 12.2779 18.0555 10.0144 18.0555 7.22231C18.0555 4.4302 15.792 2.16675 12.9999 2.16675C10.2078 2.16675 7.94434 4.4302 7.94434 7.22231C7.94434 10.0144 10.2078 12.2779 12.9999 12.2779Z" fill="white"/>
</svg>
